<svg xmlns="http://www.w3.org/2000/svg" viewBox="0 0 480 600" width="480" height="600">
  <defs>
    <linearGradient id="sky" x1="0" y1="0" x2="0.2" y2="1">
      <stop offset="0" stop-color="#DDE2D0"/>
      <stop offset="0.5" stop-color="#B7C49E"/>
      <stop offset="1" stop-color="#8A9D6C"/>
    </linearGradient>
    <radialGradient id="glow" cx="0.62" cy="0.32" r="0.6">
      <stop offset="0" stop-color="#F0EAD8" stop-opacity="0.75"/>
      <stop offset="1" stop-color="#F0EAD8" stop-opacity="0"/>
    </radialGradient>
    <radialGradient id="vig" cx="0.5" cy="0.42" r="0.75">
      <stop offset="0.6" stop-color="#000000" stop-opacity="0"/>
      <stop offset="1" stop-color="#2A2E24" stop-opacity="0.28"/>
    </radialGradient>
    <filter id="grain"><feTurbulence type="fractalNoise" baseFrequency="0.9" numOctaves="2" stitchTiles="stitch"/><feColorMatrix type="saturate" values="0"/></filter>
  </defs>
  <rect width="480" height="600" fill="url(#sky)"/>
  <rect width="480" height="600" fill="url(#glow)"/>
  <path d="M0 470 Q240 430 480 470 L480 600 L0 600 Z" fill="#74875A" opacity="0.55"/>
  <g fill="#363E2C" opacity="0.92">
    <ellipse cx="168" cy="470" rx="27" ry="18"/>
    <ellipse cx="312" cy="470" rx="27" ry="18"/>
    <path d="M166 472 Q240 442 314 472 Q314 498 240 498 Q166 498 166 472 Z"/>
    <path d="M205 350 Q240 340 275 350 L300 474 Q240 492 180 474 Z"/>
    <ellipse cx="192" cy="426" rx="15" ry="50" transform="rotate(20 192 426)"/>
    <ellipse cx="288" cy="426" rx="15" ry="50" transform="rotate(-20 288 426)"/>
    <circle cx="240" cy="312" r="41"/>
  </g>
  <rect width="480" height="600" fill="url(#vig)"/>
  <rect width="480" height="600" filter="url(#grain)" opacity="0.12"/>
</svg>
