<svg xmlns="http://www.w3.org/2000/svg" viewBox="0 0 800 600">
  <rect width="800" height="600" fill="#50693A"/>
  <circle cx="630" cy="150" r="130" fill="#7E9E63" opacity="0.55"/>
  <circle cx="150" cy="90" r="10" fill="#7E9E63" opacity="0.5"/>
  <circle cx="240" cy="140" r="6" fill="#7E9E63" opacity="0.4"/>
  <path d="M0 460 Q400 380 800 460 L800 600 L0 600 Z" fill="#3C5029"/>
  <g transform="translate(250,180) scale(1.5)">
  <g fill="#F2EFE6">
    <path d="M86 120 C 80 96 78 64 80 44 C 81 33 88 31 91 42 C 95 60 95 96 95 120 Z" transform="rotate(-7 88 80)"/>
    <path d="M114 120 C 120 96 122 62 120 42 C 119 31 112 31 109 42 C 105 60 105 96 105 120 Z" transform="rotate(7 112 80)"/>
    <ellipse cx="100" cy="98" rx="27" ry="29"/>
    <ellipse cx="100" cy="146" rx="35" ry="38"/>
  </g>
  </g>
</svg>
