<svg xmlns="http://www.w3.org/2000/svg" viewBox="0 0 600 600">
  <rect width="600" height="600" fill="#E08A4B"/>
  <circle cx="300" cy="300" r="250" fill="#EBA873" opacity="0.5"/>
  <g transform="translate(140,150) scale(2.05)">
  <g fill="#FBF3EA">
    <path d="M86 120 C 80 96 78 64 80 44 C 81 33 88 31 91 42 C 95 60 95 96 95 120 Z" transform="rotate(-7 88 80)"/>
    <path d="M114 120 C 120 96 122 62 120 42 C 119 31 112 31 109 42 C 105 60 105 96 105 120 Z" transform="rotate(7 112 80)"/>
    <ellipse cx="100" cy="98" rx="27" ry="29"/>
    <ellipse cx="100" cy="146" rx="35" ry="38"/>
  </g>
  </g>
</svg>
